<?xml version="1.0" encoding="UTF-8"?>
<svg width="560px" height="500px" viewBox="0 0 560 500" version="1.1" xmlns="http://www.w3.org/2000/svg" xmlns:xlink="http://www.w3.org/1999/xlink">
    <!-- Generator: Sketch 52.2 (67145) - http://www.bohemiancoding.com/sketch -->
    <title>图标</title>
    <desc>Created with Sketch.</desc>
    <defs>
        <linearGradient x1="50%" y1="0%" x2="50%" y2="100%" id="linearGradient-1">
            <stop stop-color="#F8DDA7" offset="0%"></stop>
            <stop stop-color="#EEB86E" offset="100%"></stop>
        </linearGradient>
        <polygon id="path-2" points="0.00275303644 0.0220242915 33.9779757 0.0220242915 33.9779757 26.9920999 0.00275303644 26.9920999"></polygon>
        <polygon id="path-4" points="6.65428844e-17 0 22 0 22 22 6.65428844e-17 22"></polygon>
        <linearGradient x1="50%" y1="0%" x2="50%" y2="100%" id="linearGradient-6">
            <stop stop-color="#EEB86E" offset="0%"></stop>
            <stop stop-color="#88632F" offset="100%"></stop>
        </linearGradient>
        <polygon id="path-7" points="0.176470588 0.676470588 9.17647059 0.676470588 9.17647059 9.67647059 0.176470588 9.67647059"></polygon>
        <polygon id="path-9" points="0.00129554656 0.0103643725 15.9896356 0.0103643725 15.9896356 12.7021646 0.00129554656 12.7021646"></polygon>
        <linearGradient x1="9.94196429%" y1="5.70549242%" x2="50%" y2="50%" id="linearGradient-11">
            <stop stop-color="#FFF4D6" offset="0%"></stop>
            <stop stop-color="#FFDF91" offset="33.4870247%"></stop>
            <stop stop-color="#E3BC64" offset="94.110057%"></stop>
            <stop stop-color="#F7DDB9" offset="100%"></stop>
        </linearGradient>
        <path d="M0,6.0098334 C0,2.69069406 2.68322128,0 5.99598526,0 L144.004015,0 C147.315506,0 150,2.69352123 150,6.0098334 L150,83.9901666 C150,87.3093059 147.316779,90 144.004015,90 L5.99598526,90 C2.68449404,90 0,87.3064788 0,83.9901666 L0,6.0098334 Z" id="path-12"></path>
        <polygon id="path-14" points="33 0 0 33 28.5372944 33 33 30.8210978 33 25.702099"></polygon>
        <filter x="-77.3%" y="-50.0%" width="254.5%" height="254.5%" filterUnits="objectBoundingBox" id="filter-15">
            <feOffset dx="0" dy="9" in="SourceAlpha" result="shadowOffsetOuter1"></feOffset>
            <feGaussianBlur stdDeviation="7" in="shadowOffsetOuter1" result="shadowBlurOuter1"></feGaussianBlur>
            <feColorMatrix values="0 0 0 0 0   0 0 0 0 0   0 0 0 0 0  0 0 0 0.0243432971 0" type="matrix" in="shadowBlurOuter1"></feColorMatrix>
        </filter>
    </defs>
    <g id="图标" stroke="none" stroke-width="1" fill="none" fill-rule="evenodd">
        <g id="分组-8" transform="translate(370.000000, 130.000000)">
            <path d="M51,20.8678404 L51,38.1945803 C51,39.2337979 50.7327149,40.2670389 50.1999865,41.2944278 C49.6656859,42.3248881 48.9679595,43.3196964 48.1039323,44.2864481 C47.24004,45.2517056 46.2528371,46.1667434 45.1439858,47.0286145 C44.0336072,47.8919383 42.9087637,48.6607161 41.7680179,49.3346574 C40.6256549,50.0102588 39.5168485,50.5720149 38.4399367,51.0185144 C37.3632045,51.464848 36.4191715,51.7709397 35.6079276,51.9379101 L35.2239804,52 L34.8719727,51.9379101 C34.0400647,51.7709397 33.0752778,51.464848 31.975905,51.0185144 C30.8767569,50.5720149 29.7359661,50.0102588 28.5520504,49.3346574 C27.3679101,48.6607161 26.2064553,47.8919383 25.0639126,47.0286145 C23.9231668,46.1667434 22.9039795,45.2517056 22.0080129,44.2864481 C21.1120464,43.3196964 20.3871422,42.3248881 19.8337049,41.2944278 C19.2767187,40.2670389 19,39.2337979 19,38.1945803 L19,20.8678404 L20.3120329,20.6800765 L35.0320293,18 L50.0399748,20.6800765 L51,20.8678404 Z M36.4425827,44 C36.8196826,44 37.1311832,43.688525 37.1311832,43.3115019 L37.1311832,41.7048697 C37.1311832,41.5409868 37.2295181,41.4098138 37.3770077,41.3606847 C37.7704498,41.2295117 38.1475498,41.0819197 38.5245728,40.8851987 C38.6557458,40.8196762 38.8196544,40.8360696 38.9344084,40.9508492 L40.0819735,42.0983119 C40.2131465,42.2294848 40.3934485,42.2950073 40.5737505,42.2950073 C40.7704716,42.2950073 40.9343546,42.2294848 41.0655276,42.0983119 L43.0983119,40.0655276 C43.2294848,39.9343546 43.2950073,39.7540526 43.2950073,39.5737505 C43.2950073,39.3770295 43.2294848,39.2131465 43.0983119,39.0819735 L41.9508492,37.9344084 C41.8360696,37.8196544 41.8196762,37.6557458 41.8851987,37.5245728 C42.0655007,37.1639688 42.2295117,36.7704498 42.3606847,36.3770077 C42.4098138,36.2295181 42.5409868,36.1311832 42.7048697,36.1311832 L44.3115019,36.1311832 C44.688525,36.1311832 45,35.8196826 45,35.4425827 L45,32.5573149 C45,32.1802918 44.688525,31.8688168 44.3115019,31.8688168 L42.7048697,31.8688168 C42.5409868,31.8688168 42.4098138,31.7704562 42.3606847,31.6229923 C42.2295117,31.2294477 42.0819197,30.8524502 41.8851987,30.4754272 C41.8196762,30.3442542 41.8360696,30.1803456 41.9508492,30.0655916 L43.0983119,28.9180265 C43.2294848,28.7868535 43.2950073,28.6229449 43.2950073,28.4262495 C43.2950073,28.2295284 43.2294848,28.0655429 43.0983119,27.9344724 L41.0655276,25.9015857 C40.9343546,25.7705152 40.7540526,25.7048902 40.5737505,25.7048902 C40.3770295,25.7048902 40.2131465,25.7705152 40.0819735,25.9015857 L38.9344084,27.0491508 C38.8360479,27.1475113 38.6557458,27.1803238 38.5245728,27.1148013 C38.1639688,26.9343969 37.7704498,26.7704883 37.3770077,26.6393153 C37.2295181,26.5901862 37.1311832,26.4590132 37.1311832,26.2951303 L37.1311832,24.6884981 C37.1311832,24.311475 36.8196826,24 36.4425827,24 L33.5573149,24 C33.1802918,24 32.8688168,24.311475 32.8688168,24.6884981 L32.8688168,26.2951303 C32.8688168,26.4590132 32.7704562,26.5901862 32.6229923,26.6393153 C32.2294477,26.7704883 31.8524502,26.9180803 31.4754272,27.1148013 C31.3442542,27.1803238 31.1803456,27.1639304 31.0655916,27.0491508 L29.9180265,25.9015857 C29.7868535,25.7705152 29.6065515,25.7048902 29.4262495,25.7048902 C29.2295284,25.7048902 29.0655429,25.7705152 28.9344724,25.9015857 L26.9015857,27.9344724 C26.7705152,28.0655429 26.7048902,28.2295284 26.7048902,28.4262495 C26.7048902,28.6229449 26.7705152,28.7868535 26.9015857,28.9180265 L28.0491508,30.0655916 C28.1639304,30.1803456 28.1803238,30.3442542 28.1148013,30.4754272 C27.9343969,30.8360312 27.7704883,31.2294477 27.6393153,31.6229923 C27.5901862,31.7704562 27.4590132,31.8688168 27.2951303,31.8688168 L25.6884981,31.8688168 C25.311475,31.8688168 25,32.1802918 25,32.5573149 L25,35.4425827 C25,35.8196826 25.311475,36.1311832 25.6884981,36.1311832 L27.2951303,36.1311832 C27.4590132,36.1311832 27.5901862,36.2295181 27.6393153,36.3770077 C27.7704883,36.7704498 27.9180803,37.1475498 28.1148013,37.5245728 C28.1803238,37.6557458 28.1639304,37.8196544 28.0491508,37.9344084 L26.9015857,39.0819735 C26.7705152,39.2131465 26.7048902,39.3934485 26.7048902,39.5737505 C26.7048902,39.7704716 26.7705152,39.9343546 26.9015857,40.0655276 L28.9344724,42.0983119 C29.0655429,42.2294848 29.2459474,42.2950073 29.4262495,42.2950073 C29.6229449,42.2950073 29.7868535,42.2294848 29.9180265,42.0983119 L31.0655916,40.9508492 C31.1639521,40.8524887 31.3442542,40.8196762 31.4754272,40.8851987 C31.8360312,41.0655007 32.2294477,41.2295117 32.6229923,41.3606847 C32.7704562,41.4098138 32.8688168,41.5409868 32.8688168,41.7048697 L32.8688168,43.3115019 C32.8688168,43.688525 33.1802918,44 33.5573149,44 L36.4425827,44 Z M34.999936,29.5409765 C37.4589492,29.5409765 39.4589979,31.5409227 39.4589979,33.999936 C39.4589979,36.4589492 37.4589492,38.4589979 34.999936,38.4589979 C32.5409227,38.4589979 30.5409765,36.4589492 30.5409765,33.999936 C30.5409765,31.5409227 32.5409227,29.5409765 34.999936,29.5409765 Z" id="合并形状-copy" fill="url(#linearGradient-1)"></path>
            <circle id="椭圆形-copy-17" stroke="url(#linearGradient-1)" stroke-width="2" opacity="0.4" fill-rule="nonzero" cx="35" cy="35" r="34"></circle>
        </g>
        <g id="分组-6" transform="translate(150.000000, 130.000000)">
            <g id="yinshua-copy" transform="translate(18.000000, 18.000000)">
                <g id="分组">
                    <mask id="mask-3" fill="white">
                        <use xlink:href="#path-2"></use>
                    </mask>
                    <g id="Clip-2"></g>
                    <path d="M29.306027,8.16266127 L26.4744831,8.16266127 L26.4744831,4.05696626 C26.4744831,3.41977598 25.6959244,2.85356815 24.7755385,2.85356815 L9.20243725,2.85356815 C8.28205128,2.85356815 7.50344669,3.41977598 7.50344669,4.05696626 L7.50344669,8.16266127 L4.67190283,8.16266127 L4.67190283,4.05696626 C4.67190283,1.86261269 6.72484211,0.0220242915 9.20243725,0.0220242915 L24.7755385,0.0220242915 C27.2530877,0.0220242915 29.306027,1.86261269 29.306027,4.05696626 L29.306027,8.16266127 Z" id="Fill-1" fill="url(#linearGradient-1)" mask="url(#mask-3)"></path>
                    <path d="M27.890278,26.9920999 L27.1116734,26.9920999 L27.1116734,24.160556 L27.890278,24.160556 C29.6598381,24.160556 31.1464318,22.6740081 31.1464318,20.9042645 L31.1464318,11.560413 C31.1464318,9.79066937 29.6598381,8.30407557 27.890278,8.30407557 L6.08769771,8.30407557 C4.31809177,8.30407557 2.83154386,9.79066937 2.83154386,11.560413 L2.83154386,20.9042645 C2.83154386,22.6740081 4.31809177,24.160556 6.08769771,24.160556 L6.93723887,24.160556 L6.93723887,26.9920999 L6.08769771,26.9920999 C2.76074494,26.9920999 0,24.2313549 0,20.9042645 L0,11.560413 C0,8.23327665 2.76074494,5.47271525 6.08769771,5.47271525 L27.890278,5.47271525 C31.2172308,5.47271525 33.9779757,8.23327665 33.9779757,11.560413 L33.9779757,20.9042645 C33.9779757,24.3021538 31.2172308,26.9920999 27.890278,26.9920999 Z" id="Fill-3" fill="url(#linearGradient-1)" mask="url(#mask-3)"></path>
                </g>
                <path d="M24.7755385,34 L9.20243725,34 C6.72484211,34 4.67190283,31.9471984 4.67190283,29.4696491 L4.67190283,17.0111039 C4.67190283,14.5333711 6.72484211,12.4806154 9.20243725,12.4806154 L24.7755385,12.4806154 C27.2530877,12.4806154 29.306027,14.5333711 29.306027,17.0111039 L29.306027,29.4696491 C29.306027,32.0179973 27.2530877,34 24.7755385,34 Z M22.6519838,21.47061 C23.4305425,21.47061 24.0677328,20.8336491 24.0677328,20.054861 C24.0677328,19.2762564 23.4305425,18.6390661 22.6519838,18.6390661 L11.3259919,18.6390661 C10.5473873,18.6390661 9.91019703,19.2762564 9.91019703,20.054861 C9.91019703,20.8336491 10.5473873,21.47061 11.3259919,21.47061 L22.6519838,21.47061 Z M22.6519838,26.850502 C23.4305425,26.850502 24.0677328,26.2133576 24.0677328,25.434753 C24.0677328,24.6559649 23.4305425,24.0189582 22.6519838,24.0189582 L11.3259919,24.0189582 C10.5473873,24.0189582 9.91019703,24.6559649 9.91019703,25.434753 C9.91019703,26.2133576 10.5473873,26.850502 11.3259919,26.850502 L22.6519838,26.850502 Z" id="合并形状" fill="url(#linearGradient-1)"></path>
            </g>
            <circle id="椭圆形-copy-15" stroke="url(#linearGradient-1)" stroke-width="2" opacity="0.4" fill-rule="nonzero" cx="35" cy="35" r="34"></circle>
        </g>
        <g id="分组-5" transform="translate(40.000000, 130.000000)">
            <g id="分组-2-copy" transform="translate(19.000000, 18.000000)" fill="url(#linearGradient-1)">
                <path d="M17.6420307,0.0232832945 C17.6460738,1.53656856 17.6354929,3.04985383 17.6475792,4.56326797 C17.7067203,6.1565842 18.4753828,7.863138 19.9933953,8.55231492 C20.5028261,8.78003585 21.0688603,8.82234959 21.6199265,8.815777 C23.2397478,8.81646433 24.859268,8.81294176 26.4790893,8.81745236 C26.4817991,11.7223226 26.481455,14.6275365 26.4790893,17.5329222 C24.8933763,17.3716574 23.2604364,17.5110995 21.7620802,18.0761275 C19.7657343,18.8154794 18.0215661,20.2129497 16.8681639,22.0012527 C13.4378073,22.0077824 10.0076227,21.9296416 6.57726615,21.9354839 C5.88636891,21.9302859 5.30569774,21.9296416 4.82522681,22.5358178 C4.61618986,22.6853606 4.4137931,23.0590348 4.4137931,23.5940335 C4.4137931,24.1290323 4.61307533,24.3909755 4.82522681,24.7418174 C5.27626616,25.2258065 5.7002142,25.2355579 6.57726615,25.2258065 C9.48980466,25.23036 12.6282377,25.2248184 15.5409483,25.2258065 C15.3361265,27.5532767 15.6848255,31.1278316 17.0408559,33.0446654 C12.8994726,33.0453527 8.75791726,33.0453527 4.61618986,33.0446654 C4.05755366,33.0515387 3.51504685,32.8741646 3.02122931,32.6249647 C2.03363725,32.1223978 1.17692984,31.3537054 0.591755411,30.4118059 C0.215230828,29.8316996 -0.00468808867,29.1477206 0.0031830558,28.4536894 C0.00184969253,20.5698456 0.00352714955,12.6860448 0.00253788003,4.80190026 C-0.0463664438,3.46500099 0.627885254,2.19150788 1.56136858,1.26958392 C2.21424345,0.638830023 3.02424013,0.108039641 3.9505405,0.0234551269 L17.6420307,0.0232832945 Z M20.2129702,0.0232832945 C21.1370769,0.188242429 23.1914355,-0.00464122563 24.6454805,1.78707787 C25.8685587,3.29419245 26.5390907,5.95201769 26.4790893,6.56266719 C24.7450289,6.56636159 23.0109254,6.5653306 21.2772091,6.56301086 C20.9856757,6.56954049 20.7202073,6.40660039 20.5485046,6.17973862 C20.1212692,5.67394986 19.8989846,5.01046188 19.8645322,4.35535073 C19.8604891,2.91122802 19.863844,1.46727714 19.8628548,0.0234551269 L20.2129702,0.0232832945 Z M5.9137931,13.1612903 C5.08536598,13.1612903 4.4137931,13.8328632 4.4137931,14.6612903 L4.4137931,14.9516129 C4.4137931,15.78004 5.08536598,16.4516129 5.9137931,16.4516129 L20.5689655,16.4516129 C21.3973926,16.4516129 22.0689655,15.78004 22.0689655,14.9516129 L22.0689655,14.6612903 C22.0689655,13.8328632 21.3973926,13.1612903 20.5689655,13.1612903 L5.9137931,13.1612903 Z" id="合并形状"></path>
                <path d="M24.137095,22.3054713 C22.4631599,22.3054713 21.1014426,23.6589954 21.1014426,25.3227629 C21.1014426,26.9865734 22.4631599,28.3400974 24.137095,28.3400974 C25.810814,28.3400974 27.1727474,26.9865734 27.1727474,25.3227629 C27.1727474,23.6591672 25.8109869,22.3054713 24.137095,22.3054713 Z M25.8915481,24.4568993 C25.853731,24.5706523 25.8057573,24.7064429 25.7487076,24.8644858 C25.6914849,25.0220561 25.629681,25.1861991 25.5626475,25.3568287 C25.4961327,25.5275012 25.4262467,25.7026844 25.3532922,25.8824211 C25.280208,26.0622867 25.2086365,26.234291 25.1389234,26.3985628 C25.0499344,26.6005948 24.9084337,26.752151 24.7148103,26.8531455 C24.5208411,26.954183 24.3175797,27.0014798 24.1048532,26.9952939 C23.8919539,26.9888931 23.6888654,26.9256588 23.494853,26.8056768 C23.3014024,26.6860385 23.1567035,26.5057862 23.061318,26.2659941 C23.0171045,26.152241 22.9662783,26.0164934 22.9088828,25.8587512 C22.8516602,25.7006654 22.7913689,25.5397443 22.7277066,25.3754725 C22.6646061,25.2115014 22.6039691,25.0502796 22.5467465,24.8927093 C22.4895238,24.7346234 22.4388706,24.5926469 22.3943112,24.4663071 C22.3434851,24.3463251 22.3546357,24.2357509 22.427547,24.1348853 C22.5006745,24.0338478 22.5926456,23.9595303 22.7041087,23.9123623 C22.81501,23.8650654 22.9294553,23.8475815 23.0469691,23.8599964 C23.1646559,23.8727549 23.2487178,23.9296744 23.2997169,24.0306689 C23.33144,24.1001322 23.36943,24.1919337 23.4138164,24.305386 C23.4584189,24.4191391 23.5092019,24.54535 23.5664677,24.6844484 C23.6236904,24.8232031 23.6824257,24.9653514 23.7427169,25.1103351 C23.8029649,25.2556623 23.8683128,25.3915818 23.9381988,25.5177498 C24.0016883,25.6441325 24.0923628,25.7119204 24.2097038,25.7213282 C24.3271744,25.7306931 24.417849,25.6534974 24.4811656,25.4893974 C24.5447847,25.3378842 24.5974693,25.2036401 24.6384846,25.0870088 C24.6801914,24.9700339 24.7149832,24.8611351 24.743508,24.7601406 C24.77186,24.6591031 24.8009036,24.562791 24.8292556,24.4711614 C24.8578237,24.3797036 24.8878612,24.2803844 24.9195843,24.1726455 C24.9768502,24.0149033 25.065796,23.9170877 25.1865081,23.8793275 C25.3072202,23.8413955 25.4281052,23.8445744 25.5484715,23.8888642 C25.6695294,23.9328533 25.7662547,24.0071708 25.8392092,24.1112154 C25.9122934,24.2154318 25.9296677,24.3308602 25.8915481,24.4568993 Z M28.6167114,28.4870571 C29.2573975,27.5933567 29.6360869,26.5014475 29.6360869,25.3227629 C29.6360869,22.3089939 27.1693763,19.8572028 24.1372679,19.8572028 C21.1049866,19.8572028 18.6382327,22.3091657 18.6382327,25.3227629 C18.6382327,26.5044545 19.0186077,27.5987264 19.6625353,28.4936297 L17.2693842,32.1265969 L20.2346752,31.9030859 L21.2639912,33.999957 L23.0326203,30.6777918 C23.3896999,30.7502621 23.7589242,30.7885378 24.1372679,30.7885378 C24.5182911,30.7885378 24.8902383,30.7497466 25.2496518,30.6759446 L27.0192749,33.999957 L28.048807,31.9030859 L31.0140548,32.1265969 L28.6167114,28.4870571 Z M20.3800225,25.3227629 C20.3800225,23.2638237 22.0654107,21.5885864 24.137095,21.5885864 C26.2086064,21.5885864 27.8939947,23.2638237 27.8939947,25.3227629 C27.8939947,27.381745 26.2086064,29.0569394 24.137095,29.0569394 C22.0654107,29.0569394 20.3800225,27.381745 20.3800225,25.3227629 Z" id="Fill-3"></path>
            </g>
            <circle id="椭圆形-copy-14" stroke="url(#linearGradient-1)" stroke-width="2" opacity="0.4" fill-rule="nonzero" cx="35" cy="35" r="34"></circle>
        </g>
        <g id="分组-7" transform="translate(260.000000, 130.000000)">
            <circle id="椭圆形-copy-16" stroke="url(#linearGradient-1)" stroke-width="2" opacity="0.4" fill-rule="nonzero" cx="35" cy="35" r="34"></circle>
            <path d="M35,32.7011126 L18,25.3506471 L35,18 L52,25.3506471 L35,32.7011126 Z M52,27.4968443 L36.0365843,34.8474914 L36.0365843,52 L52,44.6493529 L52,27.4968443 Z M18,44.6493529 L33.9634157,52 L33.9634157,34.8474914 L18,27.4968443 L18,44.6493529 Z" id="zhongchuangkongjian--copy" fill="url(#linearGradient-1)"></path>
        </g>
        <g id="分组-2" transform="translate(40.000000, 40.000000)" fill-rule="nonzero">
            <circle id="椭圆形-copy-11" stroke="url(#linearGradient-1)" stroke-width="2" opacity="0.400390625" cx="35" cy="35" r="34"></circle>
            <g id="10万模板-copy" transform="translate(18.000000, 18.000000)" fill="url(#linearGradient-1)">
                <path d="M3,0 L31,0 C32.6568542,-3.04359188e-16 34,1.34314575 34,3 L34,31 C34,32.6568542 32.6568542,34 31,34 L3,34 C1.34314575,34 2.02906125e-16,32.6568542 0,31 L0,3 C-2.02906125e-16,1.34314575 1.34314575,3.04359188e-16 3,0 Z M7,7 L27,7 L27,11 L7,11 L7,7 Z M6,5 C5.44771525,5 5,5.44771525 5,6 L5,12 C5,12.5522847 5.44771525,13 6,13 L28,13 C28.5522847,13 29,12.5522847 29,12 L29,6 C29,5.44771525 28.5522847,5 28,5 L6,5 Z M7,17 L15,17 L15,19 L7,19 L7,17 Z M6,15 C5.44771525,15 5,15.4477153 5,16 L5,20 C5,20.5522847 5.44771525,21 6,21 L16,21 C16.5522847,21 17,20.5522847 17,20 L17,16 C17,15.4477153 16.5522847,15 16,15 L6,15 Z M21,17 L27,17 L27,27 L21,27 L21,17 Z M20,15 C19.4477153,15 19,15.4477153 19,16 L19,28 C19,28.5522847 19.4477153,29 20,29 L28,29 C28.5522847,29 29,28.5522847 29,28 L29,16 C29,15.4477153 28.5522847,15 28,15 L20,15 Z M7,25 L15,25 L15,27 L7,27 L7,25 Z M6,23 C5.44771525,23 5,23.4477153 5,24 L5,28 C5,28.5522847 5.44771525,29 6,29 L16,29 C16.5522847,29 17,28.5522847 17,28 L17,24 C17,23.4477153 16.5522847,23 16,23 L6,23 Z" id="合并形状"></path>
            </g>
        </g>
        <g id="分组-3" transform="translate(150.000000, 40.000000)">
            <path d="M21,18 L49,18 C50.6568542,18 52,19.3431458 52,21 L52,49 C52,50.6568542 50.6568542,52 49,52 L21,52 C19.3431458,52 18,50.6568542 18,49 L18,21 C18,19.3431458 19.3431458,18 21,18 Z M24,24 L24,30.728842 L24.9728527,30.7005791 C25.3068916,28.244428 27.4993987,26.5692832 28.7463586,26.2911456 C29.9949849,26.0113946 32.3982177,26.3162353 32.3982177,26.3162353 C32.3982177,26.3162353 32.3673748,42.3699594 32.3673748,43.3458476 C32.3673748,44.3231611 30.9061809,44.7428279 30.9061809,44.7428279 L28.9603587,44.7711715 L28.9296327,46 L41.0720921,46 L41.0720921,44.8010209 L38.8503501,44.8010209 C37.8467715,44.7177114 37.2387714,43.5438488 37.2387714,43.5438488 L37.2660477,26.1763195 C37.2660477,26.1763195 38.7888981,25.9265254 40.9795927,26.2895591 C43.1702579,26.6525927 45.0270304,30.8121515 45.0270304,30.8121515 L46,30.8121515 L46,24 L24,24 Z" id="合并形状-copy-2" fill="url(#linearGradient-1)" fill-rule="nonzero"></path>
            <circle id="椭圆形-copy-12" stroke="url(#linearGradient-1)" stroke-width="2" opacity="0.4" fill-rule="nonzero" cx="35" cy="35" r="34"></circle>
            <g id="wenzi-copy" transform="translate(24.000000, 24.000000)">
                <mask id="mask-5" fill="white">
                    <use xlink:href="#path-4"></use>
                </mask>
                <g id="Clip-2"></g>
            </g>
        </g>
        <g id="分组-4" transform="translate(260.000000, 40.000000)" fill-rule="nonzero">
            <path d="M52,43.542206 L44.340582,36.4026173 L40.9127078,39.5385758 L31.0078813,30.2378487 L18,43.331034 L18,21 C18,19.3431458 19.3431458,18 21,18 L49,18 C50.6568542,18 52,19.3431458 52,21 L52,43.542206 Z M52,47.6434046 L52,49 C52,50.6568542 50.6568542,52 49,52 L21,52 C19.3431458,52 18,50.6568542 18,49 L18,47.5876088 L31.0804976,34.421331 L40.8861203,43.6289046 L44.3215274,40.4860546 L52,47.6434046 Z M44,29 C45.6568542,29 47,27.6568542 47,26 C47,24.3431458 45.6568542,23 44,23 C42.3431458,23 41,24.3431458 41,26 C41,27.6568542 42.3431458,29 44,29 Z" id="合并形状-copy-3" fill="url(#linearGradient-1)"></path>
            <circle id="椭圆形-copy-13" stroke="url(#linearGradient-1)" stroke-width="2" opacity="0.4" cx="35" cy="35" r="34"></circle>
        </g>
        <g id="分组-5-copy" transform="translate(53.000000, 241.000000)">
            <circle id="椭圆形-copy-9" fill="#EEB86E" fill-rule="nonzero" opacity="0.24" cx="16" cy="16" r="16"></circle>
            <g id="分组-3" transform="translate(8.000000, 8.000000)">
                <path d="M3,0 L13,0 C14.6568542,-3.04359188e-16 16,1.34314575 16,3 L16,13 C16,14.6568542 14.6568542,16 13,16 L3,16 C1.34314575,16 2.02906125e-16,14.6568542 0,13 L0,3 C-2.02906125e-16,1.34314575 1.34314575,3.04359188e-16 3,0 Z M2.82352941,2.82352941 L2.82352941,5.99004329 L3.28134243,5.97674313 C3.43853723,4.82090729 4.47030527,4.03260386 5.05710992,3.9017156 C5.64469876,3.77006805 6.77563187,3.9135225 6.77563187,3.9135225 C6.77563187,3.9135225 6.76111756,11.4682162 6.76111756,11.9274577 C6.76111756,12.3873699 6.07349691,12.5848602 6.07349691,12.5848602 L5.15781585,12.5981983 L5.14335657,13.1764706 L10.8574551,13.1764706 L10.8574551,12.6122451 L9.81192945,12.6122451 C9.33965716,12.5730407 9.0535395,12.0206347 9.0535395,12.0206347 L9.06637538,3.84767974 C9.06637538,3.84767974 9.78301089,3.73012961 10.813926,3.90096897 C11.8448273,4.07180833 12.7186025,6.02924776 12.7186025,6.02924776 L13.1764706,6.02924776 L13.1764706,2.82352941 L2.82352941,2.82352941 Z" id="合并形状-copy" fill="url(#linearGradient-6)" fill-rule="nonzero"></path>
                <g id="wenzi-copy" transform="translate(2.823529, 3.323529)">
                    <mask id="mask-8" fill="white">
                        <use xlink:href="#path-7"></use>
                    </mask>
                    <g id="Clip-2"></g>
                </g>
            </g>
        </g>
        <g id="分组-7-copy" transform="translate(157.000000, 241.000000)">
            <circle id="椭圆形-copy-11" fill="#EEB86E" fill-rule="nonzero" opacity="0.24" cx="16" cy="16" r="16"></circle>
            <g id="分组-2-copy" transform="translate(9.000000, 7.000000)" fill="url(#linearGradient-6)">
                <path d="M8.82101535,0.0116416473 C8.8230369,0.768284282 8.81774646,1.52492692 8.82378961,2.28163399 C8.85336017,3.0782921 9.23769138,3.931569 9.99669767,4.27615746 C10.2514131,4.39001793 10.5344302,4.41117479 10.8099632,4.4078885 C11.6198739,4.40823216 12.429634,4.40647088 13.2395447,4.40872618 C13.2408995,5.86116129 13.2407275,7.31376823 13.2395447,8.76646109 C12.4466882,8.68582872 11.6302182,8.75554973 10.8810401,9.03806373 C9.88286715,9.40773972 9.01078306,10.1064748 8.43408194,11.0006264 C6.71890364,11.0038912 5.00381137,10.9648208 3.28863307,10.9677419 C2.94318446,10.965143 2.65284887,10.9648208 2.4126134,11.2679089 C2.30809493,11.3426803 2.20689655,11.5295174 2.20689655,11.7970168 C2.20689655,12.0645161 2.30653767,12.1954877 2.4126134,12.3709087 C2.63813308,12.6129032 2.8501071,12.617779 3.28863307,12.6129032 C4.74490233,12.61518 6.31411886,12.6124092 7.77047414,12.6129032 C7.66806324,13.7766384 7.84241274,15.5639158 8.52042796,16.5223327 C6.44973631,16.5226764 4.37895863,16.5226764 2.30809493,16.5223327 C2.02877683,16.5257693 1.75752343,16.4370823 1.51061466,16.3124823 C1.01681862,16.0611989 0.58846492,15.6768527 0.295877705,15.2059029 C0.107615414,14.9158498 -0.00234404433,14.5738603 0.0015915279,14.2268447 C0.000924846266,10.2849228 0.00176357478,6.34302239 0.00126894001,2.40095013 C-0.0231832219,1.73250049 0.313942627,1.09575394 0.780684289,0.634791961 C1.10712173,0.319415012 1.51212007,0.0540198207 1.97527025,0.0117275635 L8.82101535,0.0116416473 Z M10.1064851,0.0116416473 C10.5685385,0.0941212145 11.5957178,-0.00232061281 12.3227403,0.893538936 C12.9342793,1.64709623 13.2695453,2.97600884 13.2395447,3.2813336 C12.3725144,3.2831808 11.5054627,3.2826653 10.6386046,3.28150543 C10.4928378,3.28477025 10.3601037,3.20330019 10.2742523,3.08986931 C10.0606346,2.83697493 9.9494923,2.50523094 9.93226611,2.17767537 C9.93024456,1.45561401 9.93192202,0.733638568 9.93142738,0.0117275635 L10.1064851,0.0116416473 Z M3.0294772,6.58064516 C2.57517845,6.58064516 2.20689655,6.94892706 2.20689655,7.40322581 C2.20689655,7.85752455 2.57517845,8.22580645 3.0294772,8.22580645 L10.2119021,8.22580645 C10.6662009,8.22580645 11.0344828,7.85752455 11.0344828,7.40322581 C11.0344828,6.94892706 10.6662009,6.58064516 10.2119021,6.58064516 L3.0294772,6.58064516 Z" id="合并形状"></path>
                <path d="M12.0685475,11.1527357 C11.23158,11.1527357 10.5507213,11.8294977 10.5507213,12.6613815 C10.5507213,13.4932867 11.23158,14.1700487 12.0685475,14.1700487 C12.905407,14.1700487 13.5863737,13.4932867 13.5863737,12.6613815 C13.5863737,11.8295836 12.9054934,11.1527357 12.0685475,11.1527357 Z M12.945774,12.2284496 C12.9268655,12.2853262 12.9028787,12.3532215 12.8743538,12.4322429 C12.8457425,12.5110281 12.8148405,12.5930995 12.7813238,12.6784143 C12.7480663,12.7637506 12.7131234,12.8513422 12.6766461,12.9412106 C12.640104,13.0311434 12.6043182,13.1171455 12.5694617,13.1992814 C12.5249672,13.3002974 12.4542169,13.3760755 12.3574051,13.4265727 C12.2604205,13.4770915 12.1587899,13.5007399 12.0524266,13.4976469 C11.945977,13.4944466 11.8444327,13.4628294 11.7474265,13.4028384 C11.6507012,13.3430192 11.5783517,13.2528931 11.530659,13.132997 C11.5085522,13.0761205 11.4831392,13.0082467 11.4544414,12.9293756 C11.4258301,12.8503327 11.3956845,12.7698722 11.3638533,12.6877362 C11.332303,12.6057507 11.3019846,12.5251398 11.2733732,12.4463546 C11.2447619,12.3673117 11.2194353,12.2963234 11.1971556,12.2331536 C11.1717425,12.1731626 11.1773179,12.1178755 11.2137735,12.0674427 C11.2503372,12.0169239 11.2963228,11.9797652 11.3520544,11.9561812 C11.407505,11.9325327 11.4647276,11.9237907 11.5234846,11.9299982 C11.5823279,11.9363775 11.6243589,11.9648372 11.6498584,12.0153345 C11.66572,12.0500661 11.684715,12.0959668 11.7069082,12.152693 C11.7292095,12.2095696 11.7546009,12.272675 11.7832339,12.3422242 C11.8118452,12.4116015 11.8412128,12.4826757 11.8713585,12.5551675 C11.9014825,12.6278312 11.9341564,12.6957909 11.9690994,12.7588749 C12.0008441,12.8220663 12.0461814,12.8559602 12.1048519,12.8606641 C12.1635872,12.8653465 12.2089245,12.8267487 12.2405828,12.7446987 C12.2723924,12.6689421 12.2987346,12.60182 12.3192423,12.5435044 C12.3400957,12.4850169 12.3574916,12.4305675 12.371754,12.3800703 C12.38593,12.3295515 12.4004518,12.2813955 12.4146278,12.2355807 C12.4289118,12.1898518 12.4439306,12.1401922 12.4597922,12.0863227 C12.4884251,12.0074517 12.532898,11.9585438 12.593254,11.9396638 C12.6536101,11.9206978 12.7140526,11.9222872 12.7742358,11.9444321 C12.8347647,11.9664267 12.8831273,12.0035854 12.9196046,12.0556077 C12.9561467,12.1077159 12.9648338,12.1654301 12.945774,12.2284496 Z M14.3083557,14.2435286 C14.6286988,13.7966783 14.8180435,13.2507237 14.8180435,12.6613815 C14.8180435,11.1544969 13.5846881,9.92860141 12.0686339,9.92860141 C10.5524933,9.92860141 9.31911636,11.1545829 9.31911636,12.6613815 C9.31911636,13.2522273 9.50930385,13.7993632 9.83126763,14.2468149 L8.6346921,16.0632985 L10.1173376,15.9515429 L10.6319956,16.9999785 L11.5163101,15.3388959 C11.69485,15.375131 11.8794621,15.3942689 12.0686339,15.3942689 C12.2591456,15.3942689 12.4451191,15.3748733 12.6248259,15.3379723 L13.5096374,16.9999785 L14.0244035,15.9515429 L15.5070274,16.0632985 L14.3083557,14.2435286 Z M10.1900112,12.6613815 C10.1900112,11.6319119 11.0327054,10.7942932 12.0685475,10.7942932 C13.1043032,10.7942932 13.9469973,11.6319119 13.9469973,12.6613815 C13.9469973,13.6908725 13.1043032,14.5284697 12.0685475,14.5284697 C11.0327054,14.5284697 10.1900112,13.6908725 10.1900112,12.6613815 Z" id="Fill-3"></path>
            </g>
        </g>
        <g id="分组-9-copy" transform="translate(261.000000, 241.000000)">
            <circle id="椭圆形-copy-13" fill="#EEB86E" fill-rule="nonzero" opacity="0.24" cx="16" cy="16" r="16"></circle>
            <path d="M16,14.9181706 L8,11.459128 L16,8 L24,11.459128 L16,14.9181706 Z M24,12.4691032 L16.4878044,15.9282312 L16.4878044,24 L24,20.540872 L24,12.4691032 Z M8,20.540872 L15.5121956,24 L15.5121956,15.9282312 L8,12.4691032 L8,20.540872 Z" id="zhongchuangkongjian--copy" fill="url(#linearGradient-6)"></path>
        </g>
        <g id="分组-6-copy" transform="translate(105.000000, 241.000000)" fill-rule="nonzero">
            <circle id="椭圆形-copy-10" fill="#EEB86E" opacity="0.24" cx="16" cy="16" r="16"></circle>
            <g id="分组-4" transform="translate(8.000000, 9.000000)" fill="url(#linearGradient-6)">
                <path d="M15,11.7028849 L15,11.4057699 L11.4339309,8.01386847 L9.92163345,9.3973796 L5.55185703,5.29411765 L0.00969019057,10.8726293 L0.00311729263,12.1379921 C0.00104656101,12.0922541 5.66390373e-18,12.0462493 0,12 L0,3 C-2.02906125e-16,1.34314575 1.34314575,3.04359188e-16 3,0 L12,0 C13.6568542,-3.04359188e-16 15,1.34314575 15,3 L15,11.7028849 Z M14.8283072,13.0027883 C14.4156846,14.1665239 13.3051767,15 12,15 L3,15 C1.5713785,15 0.375991086,14.0014061 0.0737687454,12.6641494 L5.58389365,7.13977156 L9.90990366,11.2019364 L11.4255244,9.81538494 L14.8283072,13.0027883 Z M11.4705882,4.85294118 C12.2015533,4.85294118 12.7941176,4.26037687 12.7941176,3.52941176 C12.7941176,2.79844665 12.2015533,2.20588235 11.4705882,2.20588235 C10.7396231,2.20588235 10.1470588,2.79844665 10.1470588,3.52941176 C10.1470588,4.26037687 10.7396231,4.85294118 11.4705882,4.85294118 Z" id="合并形状-copy"></path>
            </g>
        </g>
        <g id="分组-8-copy" transform="translate(209.000000, 241.000000)">
            <circle id="椭圆形-copy-12" fill="#EEB86E" fill-rule="nonzero" opacity="0.24" cx="16" cy="16" r="16"></circle>
            <g id="yinshua-copy" transform="translate(8.000000, 8.000000)">
                <g id="分组">
                    <mask id="mask-10" fill="white">
                        <use xlink:href="#path-9"></use>
                    </mask>
                    <g id="Clip-2"></g>
                    <path d="M13.7910715,3.84125236 L12.4585803,3.84125236 L12.4585803,1.90916059 C12.4585803,1.60930634 12.0921997,1.3428556 11.6590769,1.3428556 L4.3305587,1.3428556 C3.8974359,1.3428556 3.53103374,1.60930634 3.53103374,1.90916059 L3.53103374,3.84125236 L2.19854251,3.84125236 L2.19854251,1.90916059 C2.19854251,0.876523617 3.16463158,0.0103643725 4.3305587,0.0103643725 L11.6590769,0.0103643725 C12.8249825,0.0103643725 13.7910715,0.876523617 13.7910715,1.90916059 L13.7910715,3.84125236 Z" id="Fill-1" fill="url(#linearGradient-6)" mask="url(#mask-10)"></path>
                    <path d="M13.1248367,12.7021646 L12.7584345,12.7021646 L12.7584345,11.3696734 L13.1248367,11.3696734 C13.9575709,11.3696734 14.6571444,10.6701215 14.6571444,9.83730094 L14.6571444,5.44019433 C14.6571444,4.60737382 13.9575709,3.90780027 13.1248367,3.90780027 L2.86479892,3.90780027 C2.03204318,3.90780027 1.33249123,4.60737382 1.33249123,5.44019433 L1.33249123,9.83730094 C1.33249123,10.6701215 2.03204318,11.3696734 2.86479892,11.3696734 L3.264583,11.3696734 L3.264583,12.7021646 L2.86479892,12.7021646 C1.29917409,12.7021646 0,11.4029906 0,9.83730094 L0,5.44019433 C0,3.87448313 1.29917409,2.57539541 2.86479892,2.57539541 L13.1248367,2.57539541 C14.6904615,2.57539541 15.9896356,3.87448313 15.9896356,5.44019433 L15.9896356,9.83730094 C15.9896356,11.4363077 14.6904615,12.7021646 13.1248367,12.7021646 Z" id="Fill-3" fill="url(#linearGradient-6)" mask="url(#mask-10)"></path>
                </g>
                <path d="M11.6590769,16 L4.3305587,16 C3.16463158,16 2.19854251,15.0339757 2.19854251,13.8680702 L2.19854251,8.00522537 C2.19854251,6.83923347 3.16463158,5.87323077 4.3305587,5.87323077 L11.6590769,5.87323077 C12.8249825,5.87323077 13.7910715,6.83923347 13.7910715,8.00522537 L13.7910715,13.8680702 C13.7910715,15.0672928 12.8249825,16 11.6590769,16 Z M10.6597571,10.1038165 C11.0261377,10.1038165 11.3259919,9.80407018 11.3259919,9.43758165 C11.3259919,9.07117949 11.0261377,8.77132524 10.6597571,8.77132524 L5.32987854,8.77132524 C4.96347638,8.77132524 4.66362213,9.07117949 4.66362213,9.43758165 C4.66362213,9.80407018 4.96347638,10.1038165 5.32987854,10.1038165 L10.6597571,10.1038165 Z M10.6597571,12.6355304 C11.0261377,12.6355304 11.3259919,12.3356977 11.3259919,11.9692955 C11.3259919,11.602807 11.0261377,11.3030391 10.6597571,11.3030391 L5.32987854,11.3030391 C4.96347638,11.3030391 4.66362213,11.602807 4.66362213,11.9692955 C4.66362213,12.3356977 4.96347638,12.6355304 5.32987854,12.6355304 L10.6597571,12.6355304 Z" id="合并形状" fill="url(#linearGradient-6)"></path>
            </g>
        </g>
        <g id="分组-10-copy" transform="translate(313.000000, 241.000000)">
            <circle id="椭圆形-copy-14" fill="#EEB86E" fill-rule="nonzero" opacity="0.24" cx="16" cy="16" r="16"></circle>
            <path d="M24,9.43392021 L24,18.0972902 C24,18.6168989 23.8663575,19.1335195 23.5999933,19.6472139 C23.3328429,20.162444 22.9839797,20.6598482 22.5519662,21.1432241 C22.12002,21.6258528 21.6264185,22.0833717 21.0719929,22.5143073 C20.5168036,22.9459692 19.9543818,23.3303581 19.3840089,23.6673287 C18.8128274,24.0051294 18.2584243,24.2860074 17.7199683,24.5092572 C17.1816023,24.732424 16.7095858,24.8854698 16.3039638,24.968955 L16.1119902,25 L15.9359863,24.968955 C15.5200323,24.8854698 15.0376389,24.732424 14.4879525,24.5092572 C13.9383784,24.2860074 13.3679831,24.0051294 12.7760252,23.6673287 C12.183955,23.3303581 11.6032276,22.9459692 11.0319563,22.5143073 C10.4615834,22.0833717 9.95198976,21.6258528 9.50400647,21.1432241 C9.05602318,20.6598482 8.69357112,20.162444 8.41685244,19.6472139 C8.13835934,19.1335195 8,18.6168989 8,18.0972902 L8,9.43392021 L8.65601644,9.34003826 L16.0160146,8 L23.5199874,9.34003826 L24,9.43392021 Z M16.7212913,21 C16.9098413,21 17.0655916,20.8442625 17.0655916,20.655751 L17.0655916,19.8524349 C17.0655916,19.7704934 17.1147591,19.7049069 17.1885039,19.6803424 C17.3852249,19.6147559 17.5737749,19.5409599 17.7622864,19.4425993 C17.8278729,19.4098381 17.9098272,19.4180348 17.9672042,19.4754246 L18.5409868,20.0491559 C18.6065732,20.1147424 18.6967243,20.1475037 18.7868753,20.1475037 C18.8852358,20.1475037 18.9671773,20.1147424 19.0327638,20.0491559 L20.0491559,19.0327638 C20.1147424,18.9671773 20.1475037,18.8770263 20.1475037,18.7868753 C20.1475037,18.6885147 20.1147424,18.6065732 20.0491559,18.5409868 L19.4754246,17.9672042 C19.4180348,17.9098272 19.4098381,17.8278729 19.4425993,17.7622864 C19.5327503,17.5819844 19.6147559,17.3852249 19.6803424,17.1885039 C19.7049069,17.1147591 19.7704934,17.0655916 19.8524349,17.0655916 L20.655751,17.0655916 C20.8442625,17.0655916 21,16.9098413 21,16.7212913 L21,15.2786574 C21,15.0901459 20.8442625,14.9344084 20.655751,14.9344084 L19.8524349,14.9344084 C19.7704934,14.9344084 19.7049069,14.8852281 19.6803424,14.8114961 C19.6147559,14.6147239 19.5409599,14.4262251 19.4425993,14.2377136 C19.4098381,14.1721271 19.4180348,14.0901728 19.4754246,14.0327958 L20.0491559,13.4590132 C20.1147424,13.3934268 20.1475037,13.3114724 20.1475037,13.2131247 C20.1475037,13.1147642 20.1147424,13.0327715 20.0491559,12.9672362 L19.0327638,11.9507928 C18.9671773,11.8852576 18.8770263,11.8524451 18.7868753,11.8524451 C18.6885147,11.8524451 18.6065732,11.8852576 18.5409868,11.9507928 L17.9672042,12.5245754 C17.9180239,12.5737557 17.8278729,12.5901619 17.7622864,12.5574007 C17.5819844,12.4671984 17.3852249,12.3852441 17.1885039,12.3196576 C17.1147591,12.2950931 17.0655916,12.2295066 17.0655916,12.1475651 L17.0655916,11.344249 C17.0655916,11.1557375 16.9098413,11 16.7212913,11 L15.2786574,11 C15.0901459,11 14.9344084,11.1557375 14.9344084,11.344249 L14.9344084,12.1475651 C14.9344084,12.2295066 14.8852281,12.2950931 14.8114961,12.3196576 C14.6147239,12.3852441 14.4262251,12.4590401 14.2377136,12.5574007 C14.1721271,12.5901619 14.0901728,12.5819652 14.0327958,12.5245754 L13.4590132,11.9507928 C13.3934268,11.8852576 13.3032757,11.8524451 13.2131247,11.8524451 C13.1147642,11.8524451 13.0327715,11.8852576 12.9672362,11.9507928 L11.9507928,12.9672362 C11.8852576,13.0327715 11.8524451,13.1147642 11.8524451,13.2131247 C11.8524451,13.3114724 11.8852576,13.3934268 11.9507928,13.4590132 L12.5245754,14.0327958 C12.5819652,14.0901728 12.5901619,14.1721271 12.5574007,14.2377136 C12.4671984,14.4180156 12.3852441,14.6147239 12.3196576,14.8114961 C12.2950931,14.8852281 12.2295066,14.9344084 12.1475651,14.9344084 L11.344249,14.9344084 C11.1557375,14.9344084 11,15.0901459 11,15.2786574 L11,16.7212913 C11,16.9098413 11.1557375,17.0655916 11.344249,17.0655916 L12.1475651,17.0655916 C12.2295066,17.0655916 12.2950931,17.1147591 12.3196576,17.1885039 C12.3852441,17.3852249 12.4590401,17.5737749 12.5574007,17.7622864 C12.5901619,17.8278729 12.5819652,17.9098272 12.5245754,17.9672042 L11.9507928,18.5409868 C11.8852576,18.6065732 11.8524451,18.6967243 11.8524451,18.7868753 C11.8524451,18.8852358 11.8852576,18.9671773 11.9507928,19.0327638 L12.9672362,20.0491559 C13.0327715,20.1147424 13.1229737,20.1475037 13.2131247,20.1475037 C13.3114724,20.1475037 13.3934268,20.1147424 13.4590132,20.0491559 L14.0327958,19.4754246 C14.0819761,19.4262443 14.1721271,19.4098381 14.2377136,19.4425993 C14.4180156,19.5327503 14.6147239,19.6147559 14.8114961,19.6803424 C14.8852281,19.7049069 14.9344084,19.7704934 14.9344084,19.8524349 L14.9344084,20.655751 C14.9344084,20.8442625 15.0901459,21 15.2786574,21 L16.7212913,21 Z M15.999968,13.7704883 C17.2294746,13.7704883 18.2294989,14.7704614 18.2294989,15.999968 C18.2294989,17.2294746 17.2294746,18.2294989 15.999968,18.2294989 C14.7704614,18.2294989 13.7704883,17.2294746 13.7704883,15.999968 C13.7704883,14.7704614 14.7704614,13.7704883 15.999968,13.7704883 Z" id="合并形状-copy" fill="url(#linearGradient-6)"></path>
        </g>
        <path d="M36,478 L36,329 C36,320.163444 43.163444,313 52,313 L211,313 L36,478 Z" id="路径-26-copy" fill="url(#linearGradient-11)" fill-rule="nonzero"></path>
        <g id="Group-10-Copy-7" transform="translate(252.000000, 313.000000)">
            <mask id="mask-13" fill="white">
                <use xlink:href="#path-12"></use>
            </mask>
            <path stroke="#EEB86E" stroke-width="2" d="M1,6.0098334 L1,83.9901666 C1,86.7557587 3.23834265,89 5.99598526,89 L144.004015,89 C146.763504,89 149,86.7580103 149,83.9901666 L149,6.0098334 C149,3.24424127 146.761657,1 144.004015,1 L5.99598526,1 C3.23649559,1 1,3.24198966 1,6.0098334 Z"></path>
            <g id="分组-28" mask="url(#mask-13)">
                <g transform="translate(115.000000, 56.000000)">
                    <g id="Path-2" fill="none">
                        <use fill="black" fill-opacity="1" filter="url(#filter-15)" xlink:href="#path-14"></use>
                        <use fill="#EEB86E" fill-rule="evenodd" xlink:href="#path-14"></use>
                    </g>
                    <path d="M16.4515929,21.4998416 C16.8522458,21.4998416 17.2151982,21.6678181 17.4775541,21.9392927 L20.8064336,25.3786218 L27.5224459,18.4394192 C27.7848327,18.1679446 28.1477232,18 28.5483761,18 C29.3505486,18 30,18.6714583 30,19.499923 C30,19.9139793 29.837436,20.2889841 29.5743372,20.5604587 L21.8323948,28.5609646 C21.570008,28.8312559 21.2071484,29 20.8064336,29 C20.4057808,29 20.0421164,28.8312879 19.7804725,28.5609646 L15.4256628,24.0603002 C15.162564,23.7888896 15,23.4139168 15,22.9998285 C15,22.1713319 15.6494204,21.4998416 16.4515929,21.4998416 Z" id="Path" fill="#FFFFFF" fill-rule="nonzero"></path>
                </g>
            </g>
        </g>
        <g id="支付宝-copy-2" transform="translate(377.000000, 245.000000)" fill="#009FE8">
            <path d="M23.99184,16.3503454 L23.99184,4.60455924 C23.99184,2.07266643 21.92628,0.0179058898 19.3794,0.0179058898 L4.61904,0.0179058898 C2.07384,0.0179058898 0.00828,2.07266643 0.00828,4.60455924 L0.00828,19.287747 C0.00828,21.8197591 2.0724,23.8745197 4.61904,23.8745197 L19.3794,23.8745197 C21.64728,23.8745197 23.53452,22.2431738 23.91984,20.0974513 C22.69668,19.5710181 17.39628,17.2941052 14.6352,15.9833941 C12.53364,18.5152869 10.33308,20.0346613 7.01592,20.0346613 C3.69876,20.0346613 1.48476,18.0023428 1.75008,15.5150954 C1.92552,13.882317 3.05124,11.213265 7.94088,11.6710589 C10.51764,11.9111172 11.69724,12.3898014 13.79892,13.0801331 C14.34288,12.0885049 14.7942,10.9970813 15.1374,9.8354665 L5.8182,9.8354665 L5.8182,8.91689436 L10.42908,8.91689436 L10.42908,7.26776191 L4.80492,7.26776191 L4.80492,6.25679537 L10.42908,6.25679537 L10.42908,3.87698325 C10.42908,3.87698325 10.47996,3.50418263 10.89372,3.50418263 L13.19916,3.50418263 L13.19916,6.25679537 L19.19508,6.25679537 L19.19508,7.26776191 L13.19916,7.26776191 L13.19916,8.91689436 L18.09024,8.91689436 C17.64072,10.7375652 16.95864,12.4105722 16.10412,13.8718122 C17.52516,14.3834431 23.99184,16.3503454 23.99184,16.3503454 Z M6.64872,18.4602561 C3.14412,18.4602561 2.58948,16.2593835 2.77536,15.3392595 C2.95968,14.4237911 3.97452,13.2293488 5.9232,13.2293488 C8.16264,13.2293488 10.1682,13.7988755 12.57564,14.9649071 C10.88484,17.1555136 8.80716,18.4602561 6.64872,18.4602561 Z" id="Shape"></path>
        </g>
        <g id="微信支付-copy-2" transform="translate(416.000000, 245.000000)" fill="#59B64C">
            <path d="M18.3529412,0 L5.64705881,0 C2.52811765,0 0,2.52811765 0,5.64705881 L0,18.3529412 C0,21.4718824 2.52811765,24 5.64705881,24 L18.3529412,24 C21.4718824,24 24,21.4718824 24,18.3529412 L24,5.64705881 C24,2.52811763 21.4718824,0 18.3529412,0 Z M12,18.4503642 C11.1052941,18.4503642 10.2437647,18.3254437 9.43764705,18.0954202 C9.19918398,18.1386267 8.96631339,18.2085436 8.74341176,18.3038569 L7.17105881,19.293312 C6.70517646,19.6057901 6.5537647,19.4879473 6.71682354,18.9397835 L7.0662353,17.7029647 C7.0901807,17.4586811 7.06851682,17.2120623 7.00235295,16.9757365 C5.10529411,15.7067144 3.88235295,13.7338202 3.88235295,11.5255944 C3.88235295,7.71145036 7.52894119,4.60047059 12,4.60047059 C14.7271765,4.60047059 17.1476471,5.75801977 18.6208235,7.52636989 L11.0544706,11.1296 C10.5328235,11.4442014 10.0111765,11.5103774 9.48952941,11.0305129 L8.28317646,9.9423247 C7.73223527,9.77776941 7.53670587,9.95364893 7.6962353,10.4699633 L9.00035295,13.6687059 C9.29294119,14.1485704 9.726,14.309233 10.4675294,13.7674391 L19.2448235,8.40753693 C19.8024706,9.34532516 20.1172941,10.4048489 20.1172941,11.5252405 C20.1176471,15.3397384 16.4710588,18.4503642 12,18.4503642 Z" id="Shape"></path>
        </g>
        <g id="分组-2-copy-2" transform="translate(440.000000, 313.000000)">
            <circle id="椭圆形" fill="#000000" fill-rule="nonzero" opacity="0.5" cx="20" cy="20" r="20"></circle>
            <g id="关闭" transform="translate(13.000000, 13.000000)" fill="#FFFFFF" fill-opacity="0.8">
                <path d="M13.7452128,12.4704883 L8.20370427,6.94629254 L13.599953,1.48040774 C13.9414682,1.14128349 13.9414682,0.593467412 13.599953,0.254343184 C13.2584378,-0.0847810435 12.947829,-0.0847810615 12.6063138,0.254343184 L7.03853488,5.78467694 L1.49084505,0.254343184 C1.14932988,-0.0847810615 0.597651529,-0.0847810615 0.256136373,0.254343184 C-0.0853787821,0.59346743 -0.0853788002,1.14128351 0.256136373,1.48040774 L5.81464342,7 L0.257681685,12.5195923 C-0.0838334887,12.8587165 -0.0838334887,13.4065326 0.257681685,13.7456568 C0.599196858,14.0847811 1.15087521,14.0847811 1.49239036,13.7456568 L6.99372067,8.17235711 L12.6063138,13.7456568 C12.947829,14.0847811 13.4036977,14.0356771 13.7436675,13.6980874 C14.0836374,13.3604976 14.086728,12.8096125 13.7452128,12.4704883 Z" id="Shape"></path>
            </g>
        </g>
    </g>
</svg>